<svg xmlns="http://www.w3.org/2000/svg" width="30" height="30" viewBox="0 0 30 30">
    <g fill="none" fill-rule="evenodd">
        <path fill="#BFBFBF" d="M0 15C0 6.716 6.716 0 15 0c8.284 0 15 6.716 15 15 0 8.284-6.716 15-15 15-8.284 0-15-6.716-15-15z"/>
        <path fill="#FFF" d="M12.474 14.571V16.2h2.751c-.11.699-.831 2.05-2.751 2.05a3.007 3.007 0 0 1-3.008-3c0-1.656 1.352-3 3.008-3 .942 0 1.573.394 1.933.734l1.317-1.242c-.845-.774-1.94-1.242-3.25-1.242-2.682 0-4.851 2.124-4.851 4.75S9.792 20 12.473 20c2.8 0 4.658-1.927 4.658-4.641 0-.313-.035-.55-.076-.788h-4.581zM22.869 14.571h-1.386v-1.357h-1.386v1.357H18.71v1.358h1.386v1.357h1.386v-1.357h1.386"/>
    </g>
</svg>
