<svg xmlns="http://www.w3.org/2000/svg" width="15" height="15" viewBox="0 0 15 15">
    <path fill="#2FB7F3" fill-rule="evenodd" d="M5.597 9.444c.7 0 1.344-.174 1.934-.524.59-.35 1.056-.82 1.399-1.41a3.78 3.78 0 0 0 .514-1.934c0-.7-.171-1.344-.514-1.934a3.803 3.803 0 0 0-1.4-1.4 3.78 3.78 0 0 0-1.933-.514c-.7 0-1.345.172-1.934.515-.59.343-1.06.81-1.41 1.399a3.723 3.723 0 0 0-.525 1.934c0 .7.175 1.344.525 1.934.35.59.82 1.06 1.41 1.41.59.35 1.234.524 1.934.524zm5.144 0L15 13.704 13.704 15l-4.26-4.28v-.679l-.246-.226a5.088 5.088 0 0 1-1.657.977 5.66 5.66 0 0 1-1.944.34 5.529 5.529 0 0 1-2.809-.741A5.494 5.494 0 0 1 .761 8.395 5.468 5.468 0 0 1 0 5.576c0-1.015.25-1.951.751-2.809A5.5 5.5 0 0 1 2.788.741 5.529 5.529 0 0 1 5.597 0C6.612 0 7.55.254 8.416.761A5.438 5.438 0 0 1 10.4 2.778c.487.85.73 1.783.73 2.798a5.72 5.72 0 0 1-.339 1.965 5.088 5.088 0 0 1-.977 1.657l.226.246h.7z"/>
</svg>
